<svg xmlns:dc="http://purl.org/dc/elements/1.1/" xmlns:cc="http://creativecommons.org/ns#" xmlns:rdf="http://www.w3.org/1999/02/22-rdf-syntax-ns#" xmlns:svg="http://www.w3.org/2000/svg" xmlns="http://www.w3.org/2000/svg" xmlns:sodipodi="http://sodipodi.sourceforge.net/DTD/sodipodi-0.dtd" xmlns:inkscape="http://www.inkscape.org/namespaces/inkscape" version="1.1" x="0px" y="0px" viewBox="0 0 50 62.5"><g transform="translate(0,-1002.3622)"><path style="text-indent:0;text-transform:none;direction:ltr;block-progression:tb;baseline-shift:baseline;color:#000000;enable-background:accumulate;" d="m 15.024619,1014.3659 c -0.77312,0 -1.54992,0.2912 -2.13983,0.8812 -1.17968,1.1797 -1.17975,3.1001 0,4.2796 l 7.83554,7.8356 -7.83554,7.8354 c -1.17975,1.1797 -1.17968,3.1001 0,4.2797 1.17983,1.1798 3.09994,1.1798 4.27965,0 l 7.835539,-7.8356 7.83555,7.8356 c 1.1797,1.1798 3.09991,1.1798 4.27965,0 1.17976,-1.1798 1.17976,-3.0998 0,-4.2797 l -7.83554,-7.8354 7.83554,-7.8356 c 1.17976,-1.1798 1.17976,-3.0997 0,-4.2796 -1.17974,-1.1798 -3.09995,-1.1798 -4.27965,0 l -7.83555,7.8356 -7.835539,-7.8356 c -0.58985,-0.59 -1.36671,-0.881 -2.13982,-0.8812 z" fill="#000000" fill-opacity="1" stroke="none" marker="none" visibility="visible" display="inline" overflow="visible"/></g></svg>
