<svg xmlns="http://www.w3.org/2000/svg" xmlns:xlink="http://www.w3.org/1999/xlink" version="1.1" x="0px" y="0px" viewBox="0 0 100 125" style="enable-background:new 0 0 100 100;" xml:space="preserve">
  <g>
    <path d="M81.2,55c0.6,0,1.2-0.1,1.8-0.3c0.9-0.2,1.2-1,0.5-1.7c-0.9-1.1-1.9-2.2-2.9-3.2C70.9,40,61.2,30.2,51.5,20.4   c-1.3-1.3-2.7-2.6-4-3.8c-0.4-0.4-0.8-0.7-1.5-0.7c-0.4,0-0.5,0.1-0.5,0.5c0,2.7,0,5.3,0,8c0,4.1,0,8.1-0.1,12.2   c0,0.2,0.1,0.5,0.2,0.7c0.5,1,1.2,2,1.5,3.1c1,4.2-0.3,8.5-5.1,10.5c-0.7,0.3-1.4,0.4-2.2,0.5c-1.3,0.1-2.6,0.1-3.9-0.3   c-3.1-1.2-5-3.5-5.6-6.9c-0.4-2.1,0.1-4.3,1.3-6c0.6-0.8,0.8-1.6,0.8-2.6c0-2,0-4,0-6c0-0.1,0-0.2,0-0.5c0,0,0,0,0,0   c-1.5,1.5-2.9,2.9-4.3,4.3c-1.4,1.4-2.8,2.8-4.3,4.3c0,0,0,0,0,0c0-0.2,0-0.4,0-0.5c0-5.4,0-10.8,0-16.2c0-1.4,0.1-2.8,0.3-4.2   c0.2-1.4,1.3-2.2,2.3-3c3.1-2.3,8.6-1.3,9.9,3.6c0.2,0.6,0.2,1.3,0.2,2c0,6.4,0.1,12.9,0.1,19.3c0,0.2-0.1,0.4-0.2,0.5   c-0.4,0.5-0.9,1-1.3,1.5c-1,1.5-0.9,3.1,0.1,4.5c0.9,1.4,2.6,2.2,4.2,1.9c1.7-0.3,2.9-1.2,3.4-2.9c0.5-1.7,0.2-3.4-1.2-4.6   c-0.5-0.4-0.6-0.9-0.6-1.5c0-6.1,0-12.3-0.1-18.4c0-2.5-0.4-4.9-1.9-7c-1.9-2.7-4.4-4.2-7.7-4.6c-0.1,0-0.2-0.1-0.3-0.1v0h-2   c-0.4,0.1-0.8,0.1-1.2,0.2c-3.4,0.9-5.9,3-7.5,6.1c-0.6,1.1-0.8,2.1-0.8,3.3c0,8-0.1,16-0.2,24c0,0.4-0.1,0.6-0.4,0.8   c-4.4,4.4-8.7,8.8-13,13.2c-1.4,1.5-1.4,3.8,0.1,5.2L39,91c1.4,1.3,3.6,1.2,4.9-0.1c4.1-4,8.1-8.1,12.2-12.1   c7.6-7.6,15.1-15.1,22.6-22.8C79.5,55.3,80.2,55,81.2,55z"/><path d="M94.9,80L94.9,80c-0.2-1-0.4-2-0.7-2.9c-1.6-3.9-3.6-7.5-5.8-11.1c-0.7-1.2-1.5-2.4-2.4-3.5c-0.9-1.2-2.6-1.2-3.5,0   C81,65.1,79.4,67.5,78,70c-1.4,2.3-2.6,4.6-3.5,7.2c-0.6,1.8-1.1,3.6-0.8,5.5c1,5.7,5.9,9.8,11.8,9.2c4.3-0.4,7.9-3.4,9.1-7.5   c0.2-0.6,0.3-1.3,0.4-2C95,81.6,95,80.8,94.9,80z"/>
  </g>
</svg>
