<?xml version="1.0" standalone="no"?>
<!DOCTYPE svg PUBLIC "-//W3C//DTD SVG 20010904//EN"
 "http://www.w3.org/TR/2001/REC-SVG-20010904/DTD/svg10.dtd">
<svg version="1.0" xmlns="http://www.w3.org/2000/svg"
 width="297.000000pt" height="297.000000pt" viewBox="0 0 297.000000 297.000000"
 preserveAspectRatio="xMidYMid meet">
<metadata>
Created by potrace 1.11, written by Peter Selinger 2001-2013
</metadata>
<g transform="translate(0.000000,297.000000) scale(0.100000,-0.100000)"
fill="#000000" stroke="none">
<path d="M985 2952 c-62 -52 -354 -485 -593 -880 -106 -175 -143 -287 -147
-442 -6 -242 84 -434 282 -602 28 -24 31 -31 23 -53 -35 -92 -47 -276 -25
-385 24 -122 111 -278 204 -370 153 -150 336 -221 551 -215 121 4 138 7 233
40 222 78 400 264 462 481 10 32 20 62 24 66 3 4 29 9 56 12 220 25 425 145
544 319 37 54 95 177 105 222 3 17 9 41 12 55 3 14 7 72 9 130 4 146 -30 283
-108 430 -98 183 -437 727 -531 852 -55 71 -78 91 -98 82 -25 -10 -122 -140
-266 -357 l-145 -218 -55 93 c-283 477 -474 760 -511 758 -3 -1 -15 -8 -26
-18z"/>
</g>
</svg>
